<?xml version="1.0" encoding="UTF-8" standalone="no"?>
<!-- Created with Inkscape (http://www.inkscape.org/) -->

<svg
   xmlns:dc="http://purl.org/dc/elements/1.1/"
   xmlns:cc="http://creativecommons.org/ns#"
   xmlns:rdf="http://www.w3.org/1999/02/22-rdf-syntax-ns#"
   xmlns:svg="http://www.w3.org/2000/svg"
   xmlns="http://www.w3.org/2000/svg"
   xmlns:sodipodi="http://sodipodi.sourceforge.net/DTD/sodipodi-0.dtd"
   xmlns:inkscape="http://www.inkscape.org/namespaces/inkscape"
   width="744.09448819"
   height="1052.3622047"
   id="svg2"
   version="1.1"
   inkscape:version="0.48.2 r9819"
   sodipodi:docname="2.svg">
  <defs
     id="defs4" />
  <sodipodi:namedview
     id="base"
     pagecolor="#ffffff"
     bordercolor="#666666"
     borderopacity="1.0"
     inkscape:pageopacity="0.0"
     inkscape:pageshadow="2"
     inkscape:zoom="1.4142136"
     inkscape:cx="514.18988"
     inkscape:cy="577.50765"
     inkscape:document-units="px"
     inkscape:current-layer="layer1"
     showgrid="false"
     inkscape:window-width="914"
     inkscape:window-height="629"
     inkscape:window-x="0"
     inkscape:window-y="0"
     inkscape:window-maximized="0" />
  <metadata
     id="metadata7">
    <rdf:RDF>
      <cc:Work
         rdf:about="">
        <dc:format>image/svg+xml</dc:format>
        <dc:type
           rdf:resource="http://purl.org/dc/dcmitype/StillImage" />
        <dc:title />
      </cc:Work>
    </rdf:RDF>
  </metadata>
  <g
     inkscape:label="Layer 1"
     inkscape:groupmode="layer"
     id="layer1">
    <g
       style="font-size:144px;font-style:normal;font-variant:normal;font-weight:bold;font-stretch:normal;line-height:125%;letter-spacing:0px;word-spacing:0px;fill:#000000;fill-opacity:1;stroke:none;font-family:Apple LiGothic;-inkscape-font-specification:Apple LiGothic Bold"
       id="text2993"
       transform="translate(-4.6531116,10.653112)">
      <path
         d="m 454.90982,382.76432 c 0,0 -18.28844,-7e-5 -24.0484,-1.4e-4 -3.64803,7e-5 -6.72003,1.10407 -9.216,3.312 -2.49602,2.20807 -3.74402,5.18407 -3.744,8.928 -2e-5,3.64806 4.51198,8.01605 13.536,13.104 9.11996,5.08804 13.72795,7.63204 13.824,7.632 6.43195,4.80004 9.64794,10.46403 9.648,16.992 -6e-5,8.92802 -2.59205,16.17601 -7.776,21.744 -5.08804,5.472 -12.09604,8.20799 -21.024,8.208 -11.32802,-1e-5 -23.47242,0 -23.47242,0 l 0,-12.816 c 0,0 19.7764,1e-5 23.32842,0 4.22397,1e-5 7.53596,-1.43999 9.936,-4.32 2.49596,-2.87999 3.74396,-6.38398 3.744,-10.512 -4e-5,-2.97597 -0.91204,-5.56797 -2.736,-7.776 -1.82404,-2.30397 -8.01603,-5.75996 -18.576,-10.368 -10.46401,-4.70395 -15.696,-11.37595 -15.696,-20.016 0,-7.39193 2.39999,-13.58393 7.2,-18.576 4.89598,-5.08792 10.99198,-7.63191 18.288,-7.632 10.07996,9e-5 26.7844,1.4e-4 26.7844,1.4e-4"
         id="path2998"
         inkscape:connector-curvature="0"
         sodipodi:nodetypes="ccccccccsccsccccsccc"
         style="fill:#000000" />
      <path
         d="m 500.41555,428.41248 c -4e-5,21.31201 -7.87203,34.27158 -23.616,34.27159 -6.14401,-1e-5 -21.70106,-8.27547 -21.88844,-19.44 l 14.68844,0 c 2.39999,3.93601 4.99199,5.90401 7.776,5.904 2.78398,10e-6 4.84798,-1.34399 6.192,-4.032 1.43998,-2.68798 2.16,-8.44798 2.16,-17.28 l 0,-45.07189 -30.81644,0 0,-12.096 30.81644,3e-4 34.45656,0 0,12.0957 -19.76856,0 0,45.6483"
         id="path3000"
         inkscape:connector-curvature="0"
         sodipodi:nodetypes="csccscscccccccc"
         style="fill:#0395da;fill-opacity:1" />
    </g>
  </g>
</svg>
