<?xml version="1.0" encoding="UTF-8" standalone="no"?>
<!-- Created with Inkscape (http://www.inkscape.org/) -->

<svg
   xmlns:dc="http://purl.org/dc/elements/1.1/"
   xmlns:cc="http://creativecommons.org/ns#"
   xmlns:rdf="http://www.w3.org/1999/02/22-rdf-syntax-ns#"
   xmlns:svg="http://www.w3.org/2000/svg"
   xmlns="http://www.w3.org/2000/svg"
   xmlns:sodipodi="http://sodipodi.sourceforge.net/DTD/sodipodi-0.dtd"
   xmlns:inkscape="http://www.inkscape.org/namespaces/inkscape"
   width="141.5625"
   height="116.03125"
   id="svg2"
   version="1.1"
   inkscape:version="0.48.2 r9819"
   sodipodi:docname="2.svg">
  <defs
     id="defs4" />
  <sodipodi:namedview
     id="base"
     pagecolor="#ffffff"
     bordercolor="#666666"
     borderopacity="1.0"
     inkscape:pageopacity="0.0"
     inkscape:pageshadow="2"
     inkscape:zoom="2"
     inkscape:cx="72.259796"
     inkscape:cy="50.043659"
     inkscape:document-units="px"
     inkscape:current-layer="layer1"
     showgrid="false"
     inkscape:window-width="914"
     inkscape:window-height="629"
     inkscape:window-x="0"
     inkscape:window-y="0"
     inkscape:window-maximized="0"
     fit-margin-top="0"
     fit-margin-left="0"
     fit-margin-right="0"
     fit-margin-bottom="0" />
  <metadata
     id="metadata7">
    <rdf:RDF>
      <cc:Work
         rdf:about="">
        <dc:format>image/svg+xml</dc:format>
        <dc:type
           rdf:resource="http://purl.org/dc/dcmitype/StillImage" />
        <dc:title></dc:title>
      </cc:Work>
    </rdf:RDF>
  </metadata>
  <g
     inkscape:label="Layer 1"
     inkscape:groupmode="layer"
     id="layer1"
     transform="translate(-385.96875,-369.3125)">
    <path
       style="fill:#000000;fill-opacity:1;stroke:none"
       d="m 385.96875,369.3125 0,116.03125 141.5625,0 0,-116.03125 -141.5625,0 z m 37.5,12 c 10.07996,9e-5 26.78125,0 26.78125,0 l 30.8125,0 34.46875,0 0,12.09375 -19.78125,0 0,45.65625 c -4e-5,21.31201 -7.88103,34.28124 -23.625,34.28125 -6.14401,-10e-6 -21.68762,-8.27297 -21.875,-19.4375 l 14.6875,0 c 2.39999,3.93601 4.99724,5.90626 7.78125,5.90625 2.78398,10e-6 4.84348,-1.34324 6.1875,-4.03125 1.43998,-2.68798 2.15625,-8.44923 2.15625,-17.28125 l 0,-45.09375 -30.8125,0 c 0,0 -18.27129,7e-5 -24.03125,0 -3.64803,7e-5 -6.72278,1.10457 -9.21875,3.3125 -2.49602,2.20807 -3.75002,5.19357 -3.75,8.9375 -2e-5,3.64806 4.50723,8.0058 13.53125,13.09375 9.11996,5.08804 13.71645,7.65629 13.8125,7.65625 6.43195,4.80004 9.65619,10.44078 9.65625,16.96875 -6e-5,8.92802 -2.5973,16.18201 -7.78125,21.75 -5.08804,5.472 -12.07204,8.21874 -21,8.21875 l -23.5,0 0,-12.8125 23.34375,0 c 4.22397,10e-6 7.53746,-1.46374 9.9375,-4.34375 2.49596,-2.87999 3.74996,-6.37198 3.75,-10.5 -4e-5,-2.97597 -0.92604,-5.57322 -2.75,-7.78125 -1.82404,-2.30397 -8.00253,-5.76696 -18.5625,-10.375 -10.46401,-4.70395 -15.71875,-11.35995 -15.71875,-20 0,-7.39193 2.41874,-13.57043 7.21875,-18.5625 4.89598,-5.08792 10.98523,-7.65616 18.28125,-7.65625 z"
       id="rect3754"
       inkscape:connector-curvature="0" />
    <g
       style="font-size:144px;font-style:normal;font-variant:normal;font-weight:bold;font-stretch:normal;line-height:125%;letter-spacing:0px;word-spacing:0px;fill:#000000;fill-opacity:1;stroke:none;font-family:Apple LiGothic;-inkscape-font-specification:Apple LiGothic Bold"
       id="text2993"
       transform="translate(-4.6531116,10.653112)" />
  </g>
</svg>
