<?xml version="1.0" encoding="UTF-8" standalone="no"?>
<!-- Created with Inkscape (http://www.inkscape.org/) -->

<svg
   xmlns:dc="http://purl.org/dc/elements/1.1/"
   xmlns:cc="http://creativecommons.org/ns#"
   xmlns:rdf="http://www.w3.org/1999/02/22-rdf-syntax-ns#"
   xmlns:svg="http://www.w3.org/2000/svg"
   xmlns="http://www.w3.org/2000/svg"
   xmlns:sodipodi="http://sodipodi.sourceforge.net/DTD/sodipodi-0.dtd"
   xmlns:inkscape="http://www.inkscape.org/namespaces/inkscape"
   width="75"
   height="75"
   id="svg2"
   version="1.1"
   inkscape:version="0.48.2 r9819"
   sodipodi:docname="4.svg">
  <defs
     id="defs4" />
  <sodipodi:namedview
     id="base"
     pagecolor="#ffffff"
     bordercolor="#666666"
     borderopacity="1.0"
     inkscape:pageopacity="0.0"
     inkscape:pageshadow="2"
     inkscape:zoom="4.69"
     inkscape:cx="25.594854"
     inkscape:cy="53.292216"
     inkscape:document-units="px"
     inkscape:current-layer="layer1"
     showgrid="false"
     fit-margin-top="0"
     fit-margin-left="0"
     fit-margin-right="0"
     fit-margin-bottom="0"
     inkscape:window-width="1109"
     inkscape:window-height="687"
     inkscape:window-x="0"
     inkscape:window-y="0"
     inkscape:window-maximized="0" />
  <metadata
     id="metadata7">
    <rdf:RDF>
      <cc:Work
         rdf:about="">
        <dc:format>image/svg+xml</dc:format>
        <dc:type
           rdf:resource="http://purl.org/dc/dcmitype/StillImage" />
        <dc:title></dc:title>
      </cc:Work>
    </rdf:RDF>
  </metadata>
  <g
     inkscape:label="Layer 1"
     inkscape:groupmode="layer"
     id="layer1"
     transform="translate(-318.35073,-432.37135)">
    <g
       style="font-size:64px;font-style:normal;font-variant:normal;font-weight:normal;font-stretch:normal;line-height:125%;letter-spacing:0px;word-spacing:0px;fill:#000000;fill-opacity:1;stroke:none;font-family:Pacifico;-inkscape-font-specification:Pacifico"
       id="text2985"
       transform="translate(21.01598,-21.2099)">
      <path
         d="m 345.78125,459.78125 c -1.16667,4e-5 -2.14584,0.18754 -2.9375,0.5625 -0.77084,0.35421 -1.39584,0.80213 -1.875,1.34375 -0.45834,0.52088 -0.79167,1.08338 -1,1.6875 -0.20834,0.60421 -0.3125,1.14587 -0.3125,1.625 0,1.43754 0.4375,2.59379 1.3125,3.46875 0.875,0.8542 2.22916,1.28128 4.0625,1.28125 1.06249,3e-5 1.96874,-0.15621 2.71875,-0.46875 0.77082,-0.3333 1.40624,-0.76038 1.90625,-1.28125 0.49999,-0.5208 0.86457,-1.11455 1.09375,-1.78125 0.22915,-0.66663 0.34374,-1.35413 0.34375,-2.0625 -10e-6,-0.77079 -0.14585,-1.43746 -0.4375,-2 -0.27085,-0.56246 -0.64585,-1.01037 -1.125,-1.34375 -0.47918,-0.35412 -1.04168,-0.61454 -1.6875,-0.78125 -0.64584,-0.1666 -1.33334,-0.24996 -2.0625,-0.25 z m -19.03125,14 c -0.60418,3e-5 -1.15627,0.0938 -1.65625,0.28125 -0.47918,0.1667 -0.9271,0.39586 -1.34375,0.6875 -0.39585,0.27086 -0.76043,0.58336 -1.09375,0.9375 -0.33335,0.3542 -0.63543,0.71878 -0.90625,1.09375 -1.33334,1.66669 -2.41668,3.06252 -3.25,4.1875 -0.83334,1.10419 -1.54167,2.04169 -2.125,2.8125 -0.58334,0.77085 -1.09376,1.43752 -1.53125,2 -0.41667,0.56252 -0.88542,1.12502 -1.40625,1.6875 -0.52084,0.54168 -1.14584,1.14585 -1.875,1.8125 -0.72917,0.66668 -1.67708,1.50001 -2.84375,2.5 -0.16667,0.14585 -0.41666,0.34376 -0.75,0.59375 -0.33333,0.25001 -0.66666,0.54168 -1,0.875 -0.33333,0.33334 -0.625,0.71876 -0.875,1.15625 -0.25,0.41668 -0.375,0.87501 -0.375,1.375 0,0.56251 0.0625,1.00001 0.1875,1.3125 0.125,0.29167 0.29167,0.51042 0.5,0.65625 0.20834,0.12505 0.45834,0.19795 0.75,0.21875 0.29167,0.0208 0.60417,0.0313 0.9375,0.0312 0.27084,10e-5 0.54167,-0.0104 0.8125,-0.0312 0.29167,-0.0208 0.58333,-0.0625 0.875,-0.125 0.10417,1.12501 0.40625,2.08334 0.90625,2.875 0.5,0.79167 1.14583,1.4375 1.9375,1.9375 0.8125,0.47917 1.75,0.83333 2.8125,1.0625 1.06249,0.22917 2.20833,0.34375 3.4375,0.34375 1.70832,0 3.5104,-0.1875 5.40625,-0.5625 1.91665,-0.39583 3.80207,-0.92708 5.65625,-1.59375 1.05109,-0.37372 2.07032,-0.77955 3.0625,-1.21875 -0.0537,0.43859 -0.11058,0.96924 -0.15625,1.34375 -0.0833,0.83334 -0.125,1.41667 -0.125,1.75 0,3 0.13542,5.67708 0.40625,8.03125 0.29167,2.35416 0.75,4.34374 1.375,5.96875 0.64584,1.62499 1.47917,2.86457 2.5,3.71875 1.02083,0.85415 2.26041,1.28123 3.71875,1.28125 1.60416,-2e-5 2.95833,-0.40627 4.0625,-1.21875 1.12499,-0.81252 2.05207,-1.84376 2.78125,-3.09375 0.74999,-1.22918 1.33332,-2.59376 1.75,-4.09375 0.43749,-1.47917 0.74999,-2.88542 0.9375,-4.21875 0.20832,-1.33334 0.3333,-2.5 0.375,-3.5 0.0624,-0.97917 0.0937,-1.60417 0.0937,-1.875 -1e-5,-1.54167 -0.14585,-3.07291 -0.4375,-4.59375 -0.27085,-1.54166 -0.58335,-2.93749 -0.9375,-4.1875 -0.39585,-1.45832 -0.85418,-2.86457 -1.375,-4.21875 1.24999,-0.0208 2.53124,-0.14582 3.84375,-0.375 1.12498,-0.18749 2.37498,-0.47915 3.75,-0.875 1.39581,-0.41665 3.47524,-1.36332 4.15625,-1.75 2.81982,-1.60109 2.03124,-6.92647 0,-6 -1.12011,0.51089 -4.18752,1.7396 -5.8125,2.21875 -1.62502,0.45835 -3.08335,0.79169 -4.375,1 -1.29168,0.18752 -2.47918,0.32295 -3.5625,0.40625 -1.08334,0.0625 -2.20834,0.18752 -3.375,0.375 l 1.75,-5 c 0.0833,-0.27081 0.20833,-0.68748 0.375,-1.25 0.16666,-0.56248 0.33333,-1.15622 0.5,-1.78125 0.16666,-0.62497 0.30207,-1.20831 0.40625,-1.75 0.125,-0.54164 0.18749,-0.93747 0.1875,-1.1875 -1e-5,-0.47914 -0.16668,-0.93747 -0.5,-1.375 -0.31251,-0.43747 -0.83334,-0.65622 -1.5625,-0.65625 -0.50001,0 -1.01042,0.0209 -1.53125,0.0625 -0.5,0.0209 -0.98959,0.0938 -1.46875,0.21875 -0.45834,0.12503 -0.88542,0.32295 -1.28125,0.59375 -0.39584,0.27086 -0.73958,0.64586 -1.03125,1.125 -0.33333,0.56253 -0.67708,1.35419 -1.03125,2.375 -0.33333,1.02086 -0.66667,2.19794 -1,3.53125 -0.33333,1.31252 -0.65625,2.72919 -0.96875,4.25 -0.3125,1.50002 -0.60416,3.02085 -0.875,4.5625 -0.15353,0.86216 -0.29736,1.68918 -0.4375,2.53125 -0.0818,0.0387 -0.16848,0.087 -0.25,0.125 -0.93752,0.43751 -1.84377,0.86459 -2.71875,1.28125 -0.85419,0.39584 -1.65627,0.84376 -2.40625,1.34375 -2e-5,-1.33332 -0.0521,-2.48957 -0.15625,-3.46875 -0.0833,-0.97915 -0.20835,-1.84374 -0.375,-2.59375 -0.14585,-0.74998 -0.3021,-1.40623 -0.46875,-1.96875 -0.16668,-0.58332 -0.33335,-1.12498 -0.5,-1.625 -0.14585,-0.52081 -0.27085,-1.04165 -0.375,-1.5625 -0.0833,-0.54165 -0.12502,-1.1354 -0.125,-1.78125 0.0625,-0.22914 0.30207,-0.57289 0.71875,-1.03125 0.43748,-0.47914 0.89582,-0.99998 1.375,-1.5625 0.47915,-0.56247 0.91665,-1.14581 1.3125,-1.75 0.39581,-0.60414 0.59373,-1.15622 0.59375,-1.65625 0,-0.24997 -0.0208,-0.54164 -0.0625,-0.875 -0.0417,-0.35414 -0.18752,-0.68747 -0.4375,-1 -0.25002,-0.31247 -0.64585,-0.57289 -1.1875,-0.78125 -0.54169,-0.22914 -1.31252,-0.34372 -2.3125,-0.34375 z m -6,14 c 0.10416,0.33335 0.21874,0.7396 0.34375,1.21875 0.14582,0.45835 0.27082,0.95835 0.375,1.5 0.12499,0.52085 0.21875,1.07293 0.28125,1.65625 0.0833,0.58335 0.12499,1.15626 0.125,1.71875 -10e-6,0.64584 -0.0625,1.27084 -0.1875,1.875 -0.12501,0.58334 -0.34376,1.10417 -0.65625,1.5625 -0.31251,0.43751 -0.73959,0.79167 -1.28125,1.0625 -0.52084,0.27084 -1.18751,0.40626 -2,0.40625 -0.66667,10e-6 -1.26042,-0.15624 -1.78125,-0.46875 -0.52084,-0.31249 -0.97917,-0.65624 -1.375,-1.03125 -0.39584,-0.37499 -0.75,-0.71874 -1.0625,-1.03125 -0.29167,-0.31249 -0.5625,-0.46874 -0.8125,-0.46875 z m 20.90625,2.03125 c 0.56249,1.93751 1.07291,3.82293 1.53125,5.65625 0.18749,0.79168 0.37499,1.60417 0.5625,2.4375 0.18749,0.83334 0.34374,1.65626 0.46875,2.46875 0.14583,0.8125 0.26045,1.60417 0.34375,2.375 0.10415,0.75 0.15624,1.42708 0.15625,2.03125 0,1.0625 -0.0312,2.22916 -0.0937,3.5 -0.0417,1.29166 -0.16667,2.48958 -0.375,3.59375 -0.18751,1.10416 -0.48959,2.03124 -0.90625,2.78125 -0.39584,0.74999 -0.93751,1.12499 -1.625,1.125 -0.16667,-10e-6 -0.36459,-0.10418 -0.59375,-0.3125 -0.20834,-0.18751 -0.42709,-0.52084 -0.65625,-1 -0.20834,-0.45834 -0.38542,-1.07293 -0.53125,-1.84375 -0.14585,-0.75001 -0.21875,-1.69792 -0.21875,-2.84375 0,-3.5 0.1875,-6.89583 0.5625,-10.1875 0.375,-3.29166 0.83333,-6.55207 1.375,-9.78125 z"
         id="path2990"
         inkscape:connector-curvature="0"
         sodipodi:nodetypes="ccccsccccscccccccccccccccccccsccscccscssccccscccccccccscccccsscccccsscccccccccccccccccccccccsscccccccccccccccccccccccccccccccccsscc" />
    </g>
    <path
       sodipodi:type="arc"
       style="fill:#ff0000;fill-opacity:0;fill-rule:evenodd;stroke:#000000;stroke-width:1px;stroke-linecap:butt;stroke-linejoin:miter;stroke-opacity:1"
       id="path2984"
       sodipodi:cx="49.876282"
       sodipodi:cy="46.335648"
       sodipodi:rx="36.744297"
       sodipodi:ry="37.754452"
       d="m 86.620579,46.335648 c 0,20.851208 -16.450982,37.754451 -36.744297,37.754451 -20.293315,0 -36.744297,-16.903243 -36.744297,-37.754451 0,-20.851208 16.450982,-37.7544522 36.744297,-37.7544522 20.293315,0 36.744297,16.9032442 36.744297,37.7544522 z"
       transform="matrix(1.0070476,0,0,0.98010317,305.62294,424.45763)" />
  </g>
</svg>
