<?xml version="1.0" encoding="UTF-8" standalone="no"?>
<!-- Created with Inkscape (http://www.inkscape.org/) -->

<svg
   xmlns:dc="http://purl.org/dc/elements/1.1/"
   xmlns:cc="http://creativecommons.org/ns#"
   xmlns:rdf="http://www.w3.org/1999/02/22-rdf-syntax-ns#"
   xmlns:svg="http://www.w3.org/2000/svg"
   xmlns="http://www.w3.org/2000/svg"
   xmlns:sodipodi="http://sodipodi.sourceforge.net/DTD/sodipodi-0.dtd"
   xmlns:inkscape="http://www.inkscape.org/namespaces/inkscape"
   width="64.96875"
   height="64.9375"
   id="svg2"
   version="1.1"
   inkscape:version="0.48.2 r9819"
   sodipodi:docname="5.svg">
  <defs
     id="defs4" />
  <sodipodi:namedview
     id="base"
     pagecolor="#ffffff"
     bordercolor="#666666"
     borderopacity="1.0"
     inkscape:pageopacity="0.0"
     inkscape:pageshadow="2"
     inkscape:zoom="4.69"
     inkscape:cx="50.649691"
     inkscape:cy="29.296856"
     inkscape:document-units="px"
     inkscape:current-layer="layer1"
     showgrid="false"
     fit-margin-top="0"
     fit-margin-left="0"
     fit-margin-right="0"
     fit-margin-bottom="0"
     inkscape:window-width="1109"
     inkscape:window-height="687"
     inkscape:window-x="0"
     inkscape:window-y="0"
     inkscape:window-maximized="0" />
  <metadata
     id="metadata7">
    <rdf:RDF>
      <cc:Work
         rdf:about="">
        <dc:format>image/svg+xml</dc:format>
        <dc:type
           rdf:resource="http://purl.org/dc/dcmitype/StillImage" />
        <dc:title></dc:title>
      </cc:Work>
    </rdf:RDF>
  </metadata>
  <g
     inkscape:label="Layer 1"
     inkscape:groupmode="layer"
     id="layer1"
     transform="translate(-322.50698,-436.55885)">
    <path
       style="fill:#0395da;fill-opacity:1;fill-rule:evenodd;stroke:none"
       d="m 36.625,4.1875 c -17.939245,0 -32.46875,14.529505 -32.46875,32.46875 0,17.939245 14.529505,32.46875 32.46875,32.46875 1.562475,0 3.090173,-0.09922 4.59375,-0.3125 -0.558848,-0.21201 -1.095293,-0.515328 -1.5625,-0.90625 -1.02083,-0.85418 -1.85416,-2.09376 -2.5,-3.71875 -0.625,-1.62501 -1.08333,-3.61459 -1.375,-5.96875 C 35.51042,55.86458 35.375,53.1875 35.375,50.1875 c 0,-0.33333 0.0417,-0.91666 0.125,-1.75 0.04567,-0.37451 0.10255,-0.90516 0.15625,-1.34375 -0.99218,0.4392 -2.01141,0.84503 -3.0625,1.21875 -1.85418,0.66667 -3.7396,1.19792 -5.65625,1.59375 -1.89585,0.375 -3.69793,0.5625 -5.40625,0.5625 -1.22917,0 -2.37501,-0.11458 -3.4375,-0.34375 -1.0625,-0.22917 -2,-0.58333 -2.8125,-1.0625 -0.79167,-0.5 -1.4375,-1.14583 -1.9375,-1.9375 -0.5,-0.79166 -0.80208,-1.74999 -0.90625,-2.875 -0.29167,0.0625 -0.58333,0.1042 -0.875,0.125 -0.27083,0.0208 -0.54166,0.03135 -0.8125,0.03125 C 10.41667,44.40635 10.10417,44.3958 9.8125,44.375 9.52084,44.3542 9.27084,44.2813 9.0625,44.15625 8.85417,44.01042 8.6875,43.79167 8.5625,43.5 8.4375,43.18751 8.375,42.75001 8.375,42.1875 8.375,41.68751 8.5,41.22918 8.75,40.8125 9,40.37501 9.29167,39.98959 9.625,39.65625 c 0.33334,-0.33332 0.66667,-0.62499 1,-0.875 0.33334,-0.24999 0.58333,-0.4479 0.75,-0.59375 1.16667,-0.99999 2.11458,-1.83332 2.84375,-2.5 0.72916,-0.66665 1.35416,-1.27082 1.875,-1.8125 0.52083,-0.56248 0.98958,-1.12498 1.40625,-1.6875 0.43749,-0.56248 0.94791,-1.22915 1.53125,-2 0.58333,-0.77081 1.29166,-1.70831 2.125,-2.8125 0.83332,-1.12498 1.91666,-2.52081 3.25,-4.1875 0.27082,-0.37497 0.5729,-0.73955 0.90625,-1.09375 0.33332,-0.35414 0.6979,-0.66664 1.09375,-0.9375 0.41665,-0.29164 0.86457,-0.5208 1.34375,-0.6875 0.49998,-0.18745 1.05207,-0.28122 1.65625,-0.28125 0.99998,3e-5 1.77081,0.11461 2.3125,0.34375 0.54165,0.20836 0.93748,0.46878 1.1875,0.78125 0.24998,0.31253 0.3958,0.64586 0.4375,1 0.0417,0.33336 0.0625,0.62503 0.0625,0.875 -2e-5,0.50003 -0.19794,1.05211 -0.59375,1.65625 -0.39585,0.60419 -0.83335,1.18753 -1.3125,1.75 -0.47918,0.56252 -0.93752,1.08336 -1.375,1.5625 -0.41668,0.45836 -0.65625,0.80211 -0.71875,1.03125 -2e-5,0.64585 0.0417,1.2396 0.125,1.78125 0.10415,0.52085 0.22915,1.04169 0.375,1.5625 0.16665,0.50002 0.33332,1.04168 0.5,1.625 0.16665,0.56252 0.3229,1.21877 0.46875,1.96875 0.16665,0.75001 0.2917,1.6146 0.375,2.59375 0.10415,0.97918 0.15623,2.13543 0.15625,3.46875 0.74998,-0.49999 1.55206,-0.94791 2.40625,-1.34375 0.87498,-0.41666 1.78123,-0.84374 2.71875,-1.28125 0.08152,-0.038 0.1682,-0.0863 0.25,-0.125 0.14014,-0.84207 0.28397,-1.66909 0.4375,-2.53125 0.27084,-1.54165 0.5625,-3.06248 0.875,-4.5625 0.3125,-1.52081 0.63542,-2.93748 0.96875,-4.25 0.33333,-1.33331 0.66667,-2.51039 1,-3.53125 0.35417,-1.02081 0.69792,-1.81247 1.03125,-2.375 0.29167,-0.47914 0.63541,-0.85414 1.03125,-1.125 0.39583,-0.2708 0.82291,-0.46872 1.28125,-0.59375 C 43.88541,20.3438 44.375,20.2709 44.875,20.25 c 0.52083,-0.0416 1.03124,-0.0625 1.53125,-0.0625 0.72916,3e-5 1.24999,0.21878 1.5625,0.65625 0.33332,0.43753 0.49999,0.89586 0.5,1.375 -1e-5,0.25003 -0.0625,0.64586 -0.1875,1.1875 -0.10418,0.54169 -0.23959,1.12503 -0.40625,1.75 -0.16667,0.62503 -0.33334,1.21877 -0.5,1.78125 -0.16667,0.56252 -0.2917,0.97919 -0.375,1.25 l -1.75,5 c 1.16666,-0.18748 2.29166,-0.3125 3.375,-0.375 1.08332,-0.0833 2.27082,-0.21873 3.5625,-0.40625 1.29165,-0.20831 2.74998,-0.54165 4.375,-1 1.62498,-0.47915 4.69239,-1.70786 5.8125,-2.21875 2.03124,-0.92647 2.81982,4.39891 0,6 -0.68101,0.38668 -2.76044,1.33335 -4.15625,1.75 -1.37502,0.39585 -2.62502,0.68751 -3.75,0.875 -1.31251,0.22918 -2.59376,0.3542 -3.84375,0.375 0.52082,1.35418 0.97915,2.76043 1.375,4.21875 0.35415,1.25001 0.66665,2.64584 0.9375,4.1875 0.29165,1.52084 0.43749,3.05208 0.4375,4.59375 0,0.27083 -0.03135,0.89583 -0.09375,1.875 -0.0417,1 -0.16668,2.16666 -0.375,3.5 -0.18751,1.33333 -0.50001,2.73958 -0.9375,4.21875 -0.41668,1.49999 -1.00001,2.86457 -1.75,4.09375 -0.402568,0.690099 -0.851792,1.318245 -1.375,1.875 C 60.727192,61.921819 69.125,50.273233 69.125,36.65625 c 0,-11.788038 -6.291221,-22.120234 -15.6875,-27.8125 0.209582,0.5037528 0.312492,1.0653504 0.3125,1.71875 -1e-5,0.70837 -0.1146,1.39587 -0.34375,2.0625 -0.22918,0.6667 -0.59376,1.26045 -1.09375,1.78125 -0.50001,0.52087 -1.13543,0.94795 -1.90625,1.28125 -0.75001,0.31254 -1.65626,0.46878 -2.71875,0.46875 -1.83334,3e-5 -3.1875,-0.42705 -4.0625,-1.28125 -0.875,-0.87496 -1.3125,-2.03121 -1.3125,-3.46875 0,-0.47913 0.10416,-1.02079 0.3125,-1.625 0.20833,-0.60412 0.54166,-1.16662 1,-1.6875 C 44.10416,7.55213 44.72916,7.10421 45.5,6.75 46.181767,6.4270894 47.008858,6.2636039 47.96875,6.21875 44.434988,4.9004628 40.618325,4.1875 36.625,4.1875 z m -13.21875,30 -8.03125,8 c 0.25,1e-5 0.52083,0.15626 0.8125,0.46875 0.3125,0.31251 0.66666,0.65626 1.0625,1.03125 0.39583,0.37501 0.85416,0.71876 1.375,1.03125 0.52083,0.31251 1.11458,0.46876 1.78125,0.46875 0.81249,1e-5 1.47916,-0.13541 2,-0.40625 0.54166,-0.27083 0.96874,-0.62499 1.28125,-1.0625 0.31249,-0.45833 0.53124,-0.97916 0.65625,-1.5625 0.125,-0.60416 0.18749,-1.22916 0.1875,-1.875 -10e-6,-0.56249 -0.0417,-1.1354 -0.125,-1.71875 -0.0625,-0.58332 -0.15626,-1.1354 -0.28125,-1.65625 -0.10418,-0.54165 -0.22918,-1.04165 -0.375,-1.5 -0.12501,-0.47915 -0.23959,-0.8854 -0.34375,-1.21875 z m 20.90625,2.03125 c -0.54167,3.22918 -1,6.48959 -1.375,9.78125 -0.375,3.29167 -0.5625,6.6875 -0.5625,10.1875 0,1.14583 0.0729,2.09374 0.21875,2.84375 0.14583,0.77082 0.32291,1.38541 0.53125,1.84375 0.22916,0.47916 0.44791,0.81249 0.65625,1 0.22916,0.20832 0.42708,0.31249 0.59375,0.3125 0.68749,-1e-5 1.22916,-0.37501 1.625,-1.125 0.41666,-0.75001 0.71874,-1.67709 0.90625,-2.78125 0.20833,-1.10417 0.3333,-2.30209 0.375,-3.59375 0.0625,-1.27084 0.09375,-2.4375 0.09375,-3.5 -1e-5,-0.60417 -0.0521,-1.28125 -0.15625,-2.03125 -0.0833,-0.77083 -0.19792,-1.5625 -0.34375,-2.375 -0.12501,-0.81249 -0.28126,-1.63541 -0.46875,-2.46875 -0.18751,-0.83333 -0.37501,-1.64582 -0.5625,-2.4375 -0.45834,-1.83332 -0.96876,-3.71874 -1.53125,-5.65625 z"
       transform="translate(318.35073,432.37135)"
       id="path2984"
       inkscape:connector-curvature="0" />
    <g
       style="font-size:64px;font-style:normal;font-variant:normal;font-weight:normal;font-stretch:normal;line-height:125%;letter-spacing:0px;word-spacing:0px;fill:#ffffff;fill-opacity:1;stroke:none;font-family:Pacifico;-inkscape-font-specification:Pacifico"
       id="text2985"
       transform="translate(21.01598,-21.2099)" />
  </g>
</svg>
